<svg width="24" height="24" viewBox="0 0 24 24" fill="none" xmlns="http://www.w3.org/2000/svg">
<path d="M20.0645 10.4692H3.90703C3.42514 10.4692 3.05664 10.0972 3.05664 9.61081C3.05664 9.1244 3.42514 8.75244 3.90703 8.75244H20.0645C20.5464 8.75244 20.9149 9.1244 20.9149 9.61081C20.9149 10.0972 20.5464 10.4692 20.0645 10.4692Z" fill="black"/>
<path d="M16.0394 14.0457C15.5575 14.0457 15.189 13.6738 15.189 13.1874C15.189 12.701 15.5575 12.329 16.0394 12.329C16.5212 12.329 16.8898 12.701 16.8898 13.1874C16.8898 13.6738 16.4929 14.0457 16.0394 14.0457Z" fill="black"/>
<path d="M12.0145 14.0457C11.5326 14.0457 11.1641 13.6738 11.1641 13.1873C11.1641 12.7009 11.5326 12.329 12.0145 12.329C12.4963 12.329 12.8649 12.7009 12.8649 13.1873C12.8649 13.6738 12.468 14.0457 12.0145 14.0457Z" fill="black"/>
<path d="M7.98907 14.0457C7.50718 14.0457 7.13867 13.6738 7.13867 13.1874C7.13867 12.701 7.50718 12.329 7.98907 12.329C8.47096 12.329 8.83946 12.701 8.83946 13.1874C8.83946 13.6738 8.44261 14.0457 7.98907 14.0457Z" fill="black"/>
<path d="M16.0394 17.5937C15.5575 17.5937 15.189 17.2218 15.189 16.7354C15.189 16.2489 15.5575 15.877 16.0394 15.877C16.5212 15.877 16.8898 16.2489 16.8898 16.7354C16.8898 17.2218 16.4929 17.5937 16.0394 17.5937Z" fill="black"/>
<path d="M12.0145 17.5937C11.5326 17.5937 11.1641 17.2217 11.1641 16.7353C11.1641 16.2489 11.5326 15.877 12.0145 15.877C12.4963 15.877 12.8649 16.2489 12.8649 16.7353C12.8649 17.2217 12.468 17.5937 12.0145 17.5937Z" fill="black"/>
<path d="M7.98907 17.5937C7.50718 17.5937 7.13867 17.2218 7.13867 16.7354C7.13867 16.2489 7.50718 15.877 7.98907 15.877C8.47096 15.877 8.83946 16.2489 8.83946 16.7354C8.83946 17.2218 8.44261 17.5937 7.98907 17.5937Z" fill="black"/>
<path d="M15.6709 6.72103C15.189 6.72103 14.8205 6.34907 14.8205 5.86266V2.85837C14.8205 2.37196 15.189 2 15.6709 2C16.1527 2 16.5213 2.37196 16.5213 2.85837V5.86266C16.5213 6.32046 16.1244 6.72103 15.6709 6.72103Z" fill="black"/>
<path d="M8.32915 6.72103C7.84726 6.72103 7.47876 6.34907 7.47876 5.86266V2.85837C7.47876 2.37196 7.84726 2 8.32915 2C8.81104 2 9.17955 2.37196 9.17955 2.85837V5.86266C9.17955 6.32046 8.81104 6.72103 8.32915 6.72103Z" fill="black"/>
<path d="M15.8126 22H8.15905C4.9559 22 3 20.0258 3 16.8212V8.52365C3 5.3763 4.98425 3.43066 8.15905 3.43066H15.8409C17.4283 3.43066 18.7606 3.91706 19.6677 4.83266C20.5465 5.71964 21 7.0072 21 8.52365V16.8785C21 20.0258 19.0157 22 15.8126 22ZM8.15905 5.1474C6.57165 5.1474 4.70079 5.74826 4.70079 8.52365V16.7926C4.70079 18.3663 5.29606 20.2547 8.15905 20.2547H15.8126C17.4 20.2547 19.2709 19.6538 19.2709 16.8498V8.52365C19.2709 7.43639 18.9874 6.60662 18.4205 6.03438C17.8535 5.43352 16.9465 5.1474 15.8126 5.1474H8.15905Z" fill="black"/>
</svg>
