<svg width="24" height="24" viewBox="0 0 24 24" fill="none" xmlns="http://www.w3.org/2000/svg">
<g clip-path="url(#clip0_17_2313)">
<path d="M19.9955 12.1814C19.9947 11.6744 19.9514 11.1682 19.8661 10.6681H12.1714V13.6748H16.5771C16.4803 14.1589 16.2859 14.6193 16.0053 15.0291C15.7247 15.4389 15.3635 15.7898 14.9428 16.0614V18.0614H17.5713C18.3723 17.3013 19.0018 16.3854 19.4193 15.3727C19.8368 14.36 20.0331 13.2729 19.9955 12.1814Z" fill="#4285F4"/>
<path d="M12.1714 20.0014C14.1583 20.0535 16.0903 19.3594 17.5713 18.0614L14.9428 16.0614C14.1183 16.5837 13.1532 16.853 12.1714 16.8348C11.1501 16.8224 10.1586 16.4966 9.33649 15.9034C8.51435 15.3102 7.90301 14.4794 7.58859 13.5281H4.87842V15.5881C5.55602 16.9138 6.59707 18.0288 7.88506 18.8082C9.17306 19.5876 10.6572 20.0008 12.1714 20.0014Z" fill="#34A853"/>
<path d="M7.58859 13.5281C7.4157 13.037 7.32823 12.5209 7.32983 12.0014C7.33158 11.4822 7.41896 10.9667 7.58859 10.4748V8.41476H4.87842C4.30092 9.52581 3.99993 10.7548 4 12.0014C3.99993 13.2481 4.30092 14.477 4.87842 15.5881L7.58859 13.5281Z" fill="#FBBC05"/>
<path d="M12.1714 7.16812C13.336 7.14978 14.4611 7.58084 15.3037 8.36812L17.6326 6.08812C16.1578 4.72491 14.1994 3.97662 12.1714 4.00145C10.6572 4.00211 9.17306 4.41527 7.88506 5.1947C6.59707 5.97413 5.55602 7.08908 4.87842 8.41479L7.58859 10.4748C7.90301 9.52347 8.51435 8.69269 9.33649 8.09948C10.1586 7.50627 11.1501 7.18052 12.1714 7.16812Z" fill="#EA4335"/>
</g>
<defs>
<clipPath id="clip0_17_2313">
<rect width="24" height="24" fill="white"/>
</clipPath>
</defs>
</svg>
