<svg width="100" height="100" viewBox="0 0 100 100" fill="none" xmlns="http://www.w3.org/2000/svg">
<g clip-path="url(#clip0_20_3166)">
<path d="M56.8229 0.311607L64.3418 4.95267C57.0061 10.2677 53.0618 24.0586 51.9776 32.042C52.5165 23.7399 54.2094 8.58391 56.8229 0.311607ZM30.4223 12.06C40.8136 13.4648 48.7253 19.9853 50.6262 27.9879C42.2489 25.3531 29.9158 23.4537 19.5664 21.9691C11.3309 20.4588 1.87416 19.4792 -3.32823 13.0216C8.61926 13.8546 19.4586 11.7669 30.4223 12.06ZM51.2893 36.8123C51.688 37.0308 52.2002 37.0308 52.5988 36.8123C66.5733 29.3424 77.1657 28.5861 84.1951 32.9657C91.2246 37.3453 95.22 47.2249 95.22 62.1913C95.22 71.9056 90.9891 81.5874 83.5615 87.6958C76.1339 93.8039 65.5468 96.4798 52.3876 92.1697C52.1156 92.0818 51.8148 92.0818 51.5428 92.1697C38.3836 96.4798 27.7965 93.8039 20.3689 87.6958C12.9413 81.5874 8.71039 71.9056 8.71039 62.1913C8.71039 46.9447 12.7912 36.9793 19.862 32.6312C30.0948 26.9681 42.8252 32.1919 51.2893 36.8123Z" fill="#35CC8C"/>
</g>
<defs>
<clipPath id="clip0_20_3166">
<rect width="100" height="100" fill="white"/>
</clipPath>
</defs>
</svg>
