<svg width="24" height="24" viewBox="0 0 24 24" fill="none" xmlns="http://www.w3.org/2000/svg">
<path d="M6.76187 17.3388C7.55065 17.3388 8.31806 17.4556 9.0641 17.689C9.81013 17.9224 10.5507 18.2884 11.2857 18.7871V6.57035C10.6166 6.00158 9.89255 5.57501 9.11355 5.29061C8.33455 5.00622 7.55065 4.86402 6.76187 4.86402C6.19044 4.86402 5.65656 4.92257 5.16023 5.03965C4.66389 5.15675 4.15382 5.34834 3.63001 5.6144C3.55674 5.64627 3.50484 5.69209 3.47431 5.75184C3.44379 5.8116 3.42853 5.87731 3.42853 5.949V17.7021C3.42853 17.8136 3.45905 17.8953 3.5201 17.9471C3.58116 17.9988 3.64833 18.0048 3.7216 17.965C4.17337 17.7642 4.65016 17.6097 5.15199 17.5014C5.65381 17.393 6.19044 17.3388 6.76187 17.3388ZM12.7143 18.7871C13.4493 18.2884 14.1898 17.9224 14.9359 17.689C15.6819 17.4556 16.4493 17.3388 17.2381 17.3388C17.8095 17.3388 18.3462 17.393 18.848 17.5014C19.3498 17.6097 19.8266 17.7642 20.2784 17.965C20.3516 18.0048 20.4188 17.9988 20.4799 17.9471C20.5409 17.8953 20.5714 17.8136 20.5714 17.7021V5.949C20.5714 5.87731 20.5562 5.81358 20.5257 5.75781C20.4951 5.70203 20.4432 5.65423 20.37 5.6144C19.8462 5.34834 19.3361 5.15675 18.8397 5.03965C18.3434 4.92257 17.8095 4.86402 17.2381 4.86402C16.4493 4.86402 15.6654 5.00622 14.8864 5.29061C14.1074 5.57501 13.3834 6.00158 12.7143 6.57035V18.7871ZM12 21C11.8144 21 11.6407 20.9697 11.4789 20.9092C11.3172 20.8486 11.1642 20.7682 11.0202 20.6678C10.3645 20.1835 9.67856 19.8182 8.96243 19.5721C8.24632 19.3259 7.5128 19.2029 6.76187 19.2029C6.18068 19.2029 5.60987 19.2869 5.04944 19.455C4.48899 19.6231 3.9487 19.8704 3.42855 20.197C3.08912 20.4009 2.76617 20.3687 2.45969 20.1002C2.15323 19.8318 2 19.4514 2 18.9591V5.46627C2 5.19861 2.0528 4.94728 2.15841 4.71229C2.26402 4.47729 2.41635 4.30802 2.61538 4.20446C3.26007 3.79501 3.93192 3.4919 4.63094 3.29514C5.32996 3.09838 6.04027 3 6.76187 3C7.68862 3 8.594 3.1653 9.478 3.4959C10.362 3.82648 11.2027 4.3144 12 4.95965C12.7973 4.3144 13.638 3.82648 14.522 3.4959C15.406 3.1653 16.3114 3 17.2381 3C17.9597 3 18.67 3.09838 19.369 3.29514C20.0681 3.4919 20.7399 3.79501 21.3846 4.20446C21.5836 4.30802 21.736 4.47729 21.8416 4.71229C21.9472 4.94728 22 5.19861 22 5.46627V18.9591C22 19.4514 21.8407 19.8278 21.522 20.0883C21.2033 20.3488 20.8681 20.377 20.5165 20.1731C20.0024 19.8545 19.4698 19.6131 18.9185 19.449C18.3672 19.2849 17.8071 19.2029 17.2381 19.2029C16.4872 19.2029 15.7537 19.3259 15.0375 19.5721C14.3214 19.8182 13.6355 20.1835 12.9798 20.6678C12.8357 20.7682 12.6828 20.8486 12.521 20.9092C12.3593 20.9697 12.1856 21 12 21ZM13.8498 8.44397C13.8498 8.30537 13.8877 8.16358 13.9634 8.0186C14.0391 7.87361 14.1251 7.77404 14.2216 7.71988C14.6941 7.47292 15.1804 7.28571 15.6804 7.15827C16.1804 7.03081 16.6996 6.96708 17.2381 6.96708C17.5495 6.96708 17.8507 6.99097 18.1419 7.03876C18.4331 7.08656 18.7265 7.15188 19.022 7.23473C19.1343 7.26818 19.2314 7.34784 19.3132 7.4737C19.395 7.59957 19.4359 7.74614 19.4359 7.91343C19.4359 8.19383 19.3684 8.39895 19.2335 8.52879C19.0986 8.65863 18.9237 8.69009 18.7088 8.62317C18.4805 8.56104 18.2433 8.51643 17.9973 8.48936C17.7512 8.46227 17.4982 8.44873 17.2381 8.44873C16.7766 8.44873 16.3245 8.50648 15.8819 8.62199C15.4392 8.7375 15.0171 8.89403 14.6154 9.09158C14.3907 9.2047 14.2069 9.19834 14.0641 9.07247C13.9212 8.94661 13.8498 8.73711 13.8498 8.44397ZM13.8498 15.231C13.8498 15.0924 13.8877 14.9486 13.9634 14.7997C14.0391 14.6507 14.1251 14.5492 14.2216 14.495C14.6819 14.248 15.1682 14.0628 15.6804 13.9394C16.1926 13.8159 16.7118 13.7541 17.2381 13.7541C17.5495 13.7541 17.8507 13.778 18.1419 13.8258C18.4331 13.8736 18.7265 13.9389 19.022 14.0218C19.1343 14.0553 19.2314 14.1349 19.3132 14.2608C19.395 14.3866 19.4359 14.5332 19.4359 14.7005C19.4359 14.9809 19.3684 15.186 19.2335 15.3158C19.0986 15.4457 18.9237 15.4772 18.7088 15.4103C18.4805 15.3481 18.2433 15.3035 17.9973 15.2764C17.7512 15.2493 17.4982 15.2358 17.2381 15.2358C16.7827 15.2358 16.3352 15.2923 15.8956 15.4055C15.456 15.5186 15.0354 15.6779 14.6337 15.8834C14.409 16.0045 14.2222 16.0013 14.0733 15.8739C13.9243 15.7464 13.8498 15.5321 13.8498 15.231ZM13.8498 11.8494C13.8498 11.7108 13.8877 11.5691 13.9634 11.4241C14.0391 11.2791 14.1251 11.1795 14.2216 11.1254C14.6941 10.8784 15.1804 10.6912 15.6804 10.5637C16.1804 10.4363 16.6996 10.3726 17.2381 10.3726C17.5495 10.3726 17.8507 10.3965 18.1419 10.4443C18.4331 10.492 18.7265 10.5574 19.022 10.6402C19.1343 10.6737 19.2314 10.7533 19.3132 10.8792C19.395 11.005 19.4359 11.1516 19.4359 11.3189C19.4359 11.5993 19.3684 11.8044 19.2335 11.9343C19.0986 12.0641 18.9237 12.0956 18.7088 12.0287C18.4805 11.9665 18.2433 11.9219 17.9973 11.8948C17.7512 11.8677 17.4982 11.8542 17.2381 11.8542C16.7766 11.8542 16.3245 11.912 15.8819 12.0275C15.4392 12.143 15.0171 12.2995 14.6154 12.4971C14.3907 12.6102 14.2069 12.6038 14.0641 12.4779C13.9212 12.3521 13.8498 12.1426 13.8498 11.8494Z" fill="black"/>
</svg>
