<svg width="24" height="24" viewBox="0 0 24 24" fill="none" xmlns="http://www.w3.org/2000/svg">
<path d="M15.2403 1.34005C14.9915 1.30581 14.7383 1.32519 14.4977 1.3969C14.257 1.4686 14.0345 1.59097 13.8451 1.75579C13.6556 1.9206 13.5036 2.12405 13.3993 2.35245C13.295 2.58086 13.2408 2.82895 13.2403 3.08005V9.00005C13.2429 9.4651 13.4295 9.91019 13.7593 10.2381C14.0891 10.566 14.5352 10.7501 15.0003 10.75H20.9203C21.1714 10.7495 21.4195 10.6953 21.6479 10.591C21.8763 10.4867 22.0797 10.3347 22.2445 10.1453C22.4093 9.95581 22.5317 9.7333 22.6034 9.49265C22.6751 9.25201 22.6945 8.99881 22.6603 8.75005C22.3883 6.87979 21.5188 5.14763 20.1815 3.81214C18.8442 2.47666 17.1109 1.60948 15.2403 1.34005ZM21.1203 9.16005C21.068 9.21507 20.9961 9.24739 20.9203 9.25005H15.0003C14.934 9.25005 14.8704 9.22371 14.8235 9.17683C14.7766 9.12994 14.7503 9.06635 14.7503 9.00005V3.08005C14.7529 3.00417 14.7852 2.93236 14.8403 2.88005C14.8853 2.84259 14.9417 2.82145 15.0003 2.82005C16.5605 3.04241 18.0064 3.76509 19.1208 4.87948C20.2352 5.99388 20.9579 7.43982 21.1803 9.00005C21.1806 9.05894 21.1592 9.11588 21.1203 9.16005Z" fill="black"/>
<path d="M8.65027 22.5701C9.26309 22.6893 9.88594 22.7496 10.5103 22.7501C12.4432 22.7483 14.3262 22.1358 15.8903 21.0001C16.916 20.2625 17.7803 19.3234 18.4303 18.2401C19.0803 17.1568 19.5022 15.9522 19.6703 14.7001C19.7062 14.451 19.688 14.1972 19.617 13.9558C19.5459 13.7144 19.4236 13.4912 19.2585 13.3014C19.0933 13.1116 18.8892 12.9596 18.66 12.8558C18.4308 12.752 18.1819 12.6989 17.9303 12.7001H11.5003C11.434 12.7001 11.3704 12.6737 11.3235 12.6268C11.2766 12.5799 11.2503 12.5164 11.2503 12.4501V6.07006C11.2514 5.81845 11.1983 5.56955 11.0945 5.34033C10.9907 5.11112 10.8388 4.90698 10.6489 4.74183C10.4591 4.57668 10.2359 4.45441 9.99452 4.38334C9.75315 4.31228 9.4993 4.29411 9.25027 4.33006C7.07771 4.61358 5.07633 5.65907 3.60258 7.28032C2.12883 8.90157 1.27841 10.9933 1.20278 13.183C1.12715 15.3727 1.83123 17.5181 3.1896 19.2371C4.54798 20.9562 6.47245 22.1373 8.62027 22.5701H8.65027ZM4.20027 9.00006C4.81621 8.13943 5.60127 7.41351 6.50742 6.86673C7.41356 6.31995 8.42174 5.96379 9.47027 5.82006C9.52916 5.81975 9.5861 5.8411 9.63027 5.88006C9.65767 5.90371 9.67983 5.93283 9.69533 5.96555C9.71083 5.99827 9.71932 6.03386 9.72027 6.07006V12.5001C9.72289 12.9634 9.90811 13.407 10.2357 13.7346C10.5634 14.0622 11.0069 14.2474 11.4703 14.2501H17.9003C17.9365 14.251 17.9721 14.2595 18.0048 14.275C18.0375 14.2905 18.0666 14.3127 18.0903 14.3401C18.1145 14.3648 18.1326 14.3949 18.143 14.4279C18.1534 14.4609 18.1559 14.4959 18.1503 14.5301C18.0036 15.704 17.5901 16.8288 16.9415 17.8182C16.2929 18.8076 15.4263 19.6354 14.4083 20.2381C13.3903 20.8408 12.2477 21.2025 11.0683 21.2953C9.88889 21.3882 8.70386 21.2098 7.60405 20.7738C6.50424 20.3378 5.51885 19.6558 4.72338 18.7801C3.92792 17.9044 3.34351 16.8582 3.01494 15.7216C2.68637 14.5851 2.62236 13.3884 2.82782 12.2233C3.03328 11.0582 3.50276 9.95564 4.20027 9.00006Z" fill="black"/>
</svg>
