<svg width="24" height="24" viewBox="0 0 24 24" fill="none" xmlns="http://www.w3.org/2000/svg">
<path d="M4.99047 20.55C4.34689 20.55 3.80843 20.3334 3.3751 19.9C2.94176 19.4667 2.7251 18.9283 2.7251 18.2847V3.37505C2.7251 3.15005 2.80641 2.9563 2.96905 2.7938C3.13166 2.6313 3.32557 2.55005 3.55077 2.55005C3.77597 2.55005 3.96966 2.6313 4.13182 2.7938C4.29401 2.9563 4.3751 3.15005 4.3751 3.37505V18.2847C4.3751 18.4385 4.4392 18.5795 4.5674 18.7077C4.69561 18.8359 4.83664 18.9 4.99047 18.9H20.4501C20.6751 18.9 20.8688 18.9814 21.0313 19.144C21.1938 19.3066 21.2751 19.5005 21.2751 19.7257C21.2751 19.9509 21.1938 20.1446 21.0313 20.3068C20.8688 20.469 20.6751 20.55 20.4501 20.55H4.99047ZM8.31547 16.4C8.02509 16.4 7.77653 16.2967 7.5698 16.0899C7.36306 15.8832 7.2597 15.6347 7.2597 15.3443V9.89812C7.2597 9.60774 7.36306 9.35918 7.5698 9.15245C7.77653 8.94572 8.02509 8.84235 8.31547 8.84235H8.42702C8.73921 8.84235 9.00603 8.95358 9.2275 9.17605C9.44898 9.3985 9.55972 9.66654 9.55972 9.98017V15.27C9.55972 15.5836 9.44898 15.8504 9.2275 16.0702C9.00603 16.2901 8.73921 16.4 8.42702 16.4H8.31547ZM13.1155 16.4C12.8251 16.4 12.5765 16.2967 12.3698 16.0899C12.1631 15.8832 12.0597 15.6347 12.0597 15.3443V4.87505C12.0597 4.56287 12.1704 4.29604 12.3919 4.07457C12.6134 3.85309 12.8802 3.74235 13.1924 3.74235H13.3039C13.5943 3.74235 13.8429 3.84572 14.0496 4.05245C14.2564 4.25918 14.3597 4.50774 14.3597 4.79812V15.2674C14.3597 15.5795 14.249 15.8464 14.0275 16.0679C13.806 16.2893 13.5392 16.4 13.227 16.4H13.1155ZM17.9155 16.4C17.6251 16.4 17.3765 16.2967 17.1698 16.0899C16.9631 15.8832 16.8597 15.6347 16.8597 15.3443V14.075C16.8597 13.7629 16.9705 13.496 17.1919 13.2746C17.4134 13.0531 17.6802 12.9423 17.9924 12.9423H18.1039C18.3943 12.9423 18.6429 13.0457 18.8496 13.2524C19.0564 13.4592 19.1597 13.7077 19.1597 13.9981V15.2674C19.1597 15.5795 19.049 15.8464 18.8275 16.0679C18.606 16.2893 18.3392 16.4 18.027 16.4H17.9155Z" fill="black"/>
</svg>
