<svg width="240" height="230" viewBox="0 0 240 230" fill="none" xmlns="http://www.w3.org/2000/svg">
<g clip-path="url(#clip0_13_1570)">
<path d="M64.8148 229.554H44.0039C43.3007 229.554 42.6266 229.248 42.1293 228.705C41.6321 228.162 41.3524 227.426 41.3516 226.658V179.432C41.3524 178.664 41.6321 177.928 42.1293 177.385C42.6266 176.842 43.3007 176.537 44.0039 176.536H64.8148C65.518 176.537 66.1922 176.842 66.6895 177.385C67.1867 177.928 67.4664 178.664 67.4672 179.432V226.658C67.4664 227.426 67.1867 228.162 66.6895 228.705C66.1922 229.248 65.518 229.554 64.8148 229.554Z" fill="#35CC8C"/>
<path d="M114.19 230H93.3788C92.5674 229.999 91.7895 229.647 91.2158 229.02C90.642 228.394 90.3193 227.544 90.3184 226.658V134.878C90.3193 133.992 90.642 133.143 91.2158 132.516C91.7895 131.89 92.5674 131.537 93.3788 131.536H114.19C115.001 131.537 115.779 131.89 116.353 132.516C116.927 133.143 117.249 133.992 117.25 134.878V226.658C117.249 227.544 116.927 228.394 116.353 229.02C115.779 229.647 115.001 229.999 114.19 230ZM93.3788 132.428C92.7838 132.428 92.2134 132.687 91.7926 133.146C91.3719 133.605 91.1352 134.228 91.1345 134.878V226.658C91.1352 227.308 91.3719 227.931 91.7926 228.39C92.2134 228.85 92.7838 229.108 93.3788 229.109H114.19C114.785 229.108 115.355 228.85 115.776 228.39C116.197 227.931 116.433 227.308 116.434 226.658V134.878C116.433 134.228 116.197 133.605 115.776 133.146C115.355 132.687 114.785 132.428 114.19 132.428H93.3788Z" fill="#3F3D56"/>
<path d="M163.565 230H142.754C141.942 229.999 141.164 229.647 140.591 229.02C140.017 228.394 139.694 227.544 139.693 226.658V76.5127C139.694 75.6267 140.017 74.7774 140.591 74.1509C141.164 73.5245 141.942 73.1721 142.754 73.1711H163.565C164.376 73.1721 165.154 73.5245 165.728 74.1509C166.302 74.7774 166.624 75.6267 166.625 76.5127V226.658C166.624 227.544 166.302 228.394 165.728 229.02C165.154 229.647 164.376 229.999 163.565 230ZM142.754 74.0622C142.159 74.063 141.588 74.3214 141.168 74.7807C140.747 75.2401 140.51 75.863 140.509 76.5127V226.658C140.51 227.308 140.747 227.931 141.168 228.39C141.588 228.85 142.159 229.108 142.754 229.109H163.565C164.16 229.108 164.73 228.85 165.151 228.39C165.572 227.931 165.808 227.308 165.809 226.658V76.5127C165.808 75.863 165.572 75.2401 165.151 74.7807C164.73 74.3214 164.16 74.0629 163.565 74.0622H142.754Z" fill="#3F3D56"/>
<path d="M213.4 229.777H192.59C191.886 229.776 191.212 229.471 190.715 228.928C190.218 228.385 189.938 227.649 189.937 226.881V15.2514C189.938 14.4836 190.218 13.7475 190.715 13.2046C191.212 12.6617 191.886 12.3563 192.59 12.3554H213.4C214.104 12.3563 214.778 12.6617 215.275 13.2046C215.772 13.7475 216.052 14.4836 216.053 15.2514V226.881C216.052 227.649 215.772 228.385 215.275 228.928C214.778 229.471 214.104 229.776 213.4 229.777Z" fill="#35CC8C"/>
<path d="M83.9697 99.0687C84.0452 98.4189 83.9893 97.759 83.8059 97.1354C83.6226 96.5117 83.3162 95.9396 82.9084 95.4592C82.5006 94.9788 82.0013 94.6019 81.4457 94.3551C80.8901 94.1082 80.2916 93.9973 79.6925 94.0303L72.4386 79.5017L70.8064 85.7392L75.7761 99.0544C75.8935 100.15 76.3748 101.16 77.1288 101.894C77.8828 102.627 78.8571 103.033 79.8671 103.035C80.8771 103.037 81.8525 102.634 82.6087 101.903C83.3648 101.172 83.8491 100.164 83.9697 99.0687Z" fill="#A0616A"/>
<path d="M28.0809 156.434L32.121 159.654L45.4217 144.171L39.4583 139.417L28.0809 156.434Z" fill="#A0616A"/>
<path d="M37.1744 169.962L24.4757 159.84L28.0576 154.483L35.85 160.694C37.1512 161.732 38.0218 163.291 38.2702 165.029C38.5186 166.767 38.1244 168.541 37.1744 169.962Z" fill="#2F2E41"/>
<path d="M49.4569 173.482L54.4597 173.481L56.8395 152.413L49.4561 152.413L49.4569 173.482Z" fill="#A0616A"/>
<path d="M64.108 178.553L48.3852 178.554L48.385 171.921L58.033 171.921C59.6441 171.921 61.1893 172.619 62.3285 173.863C63.4678 175.107 64.1079 176.794 64.108 178.553Z" fill="#2F2E41"/>
<path d="M64.4816 91.3085C64.4816 91.3085 66.9299 117.15 60.809 134.971L56.3204 168.832H48.5673L49.3834 128.734L46.527 93.0906C46.527 93.0906 52.2398 77.0513 64.4816 91.3085Z" fill="#2F2E41"/>
<path d="M37.9579 93.0904L46.119 123.832L30.2048 151.456L38.1619 158.807L56.3204 127.842L51.0157 89.9716L37.9579 93.0904Z" fill="#2F2E41"/>
<path d="M58.7703 24.1544C64.3055 24.1544 68.7927 19.2551 68.7927 13.2115C68.7927 7.16798 64.3055 2.26871 58.7703 2.26871C53.2352 2.26871 48.748 7.16798 48.748 13.2115C48.748 19.2551 53.2352 24.1544 58.7703 24.1544Z" fill="#A0616A"/>
<path d="M50.4036 28.2651C50.4036 28.2651 56.5244 23.8097 63.4614 33.6115L65.2977 95.3183C65.2977 95.3183 59.9929 87.2986 48.9754 94.8727C37.9578 102.447 35.5095 93.9817 35.5095 93.9817C35.5095 93.9817 27.7564 30.27 50.4036 28.2651Z" fill="#35CC8C"/>
<path d="M62.9677 33.4559C64.7281 33.5598 66.3911 34.3708 67.6369 35.7329C68.8826 37.095 69.623 38.9119 69.7157 40.8341L71.0105 67.695L79.5797 93.0906L74.683 97.546L58.7687 67.2495L55.5105 42.3471C55.3612 41.2057 55.4455 40.0423 55.7573 38.9408C56.0691 37.8393 56.6008 36.8269 57.3139 35.9766C58.0271 35.1263 58.9041 34.4592 59.8817 34.0233C60.8593 33.5875 61.9133 33.3937 62.9677 33.4559Z" fill="#35CC8C"/>
<path d="M51.4061 21.4198C53.0446 23.3254 56.0874 22.3024 56.3009 19.6991C56.3177 19.4969 56.3165 19.2935 56.2973 19.0917C56.1871 17.9385 55.5769 16.8916 55.7231 15.674C55.7561 15.371 55.8595 15.0822 56.0235 14.835C57.3291 12.926 60.394 15.6888 61.6262 13.9607C62.3818 12.9011 61.4936 11.2327 62.0735 10.0484C62.8387 8.48525 65.1054 9.25634 66.5268 8.4003C68.1083 7.44785 68.0137 4.79847 66.9727 3.18699C65.703 1.22173 63.477 0.173047 61.2787 0.0218992C59.0804 -0.129249 56.8972 0.519603 54.8448 1.39288C52.513 2.38509 50.2006 3.75637 48.7656 5.9951C47.0205 8.71765 46.8526 12.3779 47.7253 15.5614C48.2562 17.4979 50.0682 19.8636 51.4061 21.4198Z" fill="#2F2E41"/>
<path d="M264.619 229.811H0.485982C0.357365 229.811 0.234141 229.754 0.143327 229.655C0.0525134 229.556 0.00152588 229.421 0.00152588 229.28C0.00152588 229.14 0.0525134 229.005 0.143327 228.906C0.234141 228.806 0.357365 228.75 0.485982 228.75H264.619C264.747 228.75 264.871 228.806 264.961 228.906C265.052 229.005 265.103 229.14 265.103 229.28C265.103 229.421 265.052 229.556 264.961 229.655C264.871 229.754 264.747 229.811 264.619 229.811Z" fill="#3F3D56"/>
</g>
<defs>
<clipPath id="clip0_13_1570">
<rect width="240" height="230" fill="white"/>
</clipPath>
</defs>
</svg>
