<svg width="264" height="230" viewBox="0 0 264 230" fill="none" xmlns="http://www.w3.org/2000/svg">
<g clip-path="url(#clip0_13_1383)">
<path d="M247.542 72.4797C244.278 76.7582 240.6 80.6309 236.573 84.0291C220.888 97.2945 201.021 104.489 181.422 105.998C171.349 106.779 161.228 106.02 151.343 103.745C141.287 101.422 131.696 97.3296 122.407 92.5498C113.373 87.8999 104.606 82.6569 95.6317 77.8771C95.7272 77.5648 95.8226 77.2524 95.9149 76.9366C105.7 82.1305 115.285 87.8543 125.185 92.8025C134.512 97.4665 144.167 101.271 154.265 103.306C164.339 105.323 174.621 105.767 184.808 104.626C204.353 102.457 224.236 94.5046 239.262 80.2775C242.084 77.6066 244.692 74.6737 247.059 71.5111C247.221 71.834 247.383 72.1569 247.542 72.4797Z" fill="#CCCCCC"/>
<path d="M179.633 0.330182C179.61 0.330182 179.587 0.330984 179.565 0.332591C155.446 1.99896 136.553 24.2003 136.553 50.8764C136.553 77.5526 155.446 99.7541 179.565 101.42C179.709 101.431 179.853 101.408 179.989 101.355C180.125 101.301 180.249 101.217 180.354 101.107C180.459 101 180.542 100.869 180.599 100.725C180.656 100.58 180.685 100.424 180.685 100.266V1.48695C180.684 1.17987 180.573 0.885603 180.376 0.668735C180.179 0.451867 179.911 0.330117 179.633 0.330182Z" fill="#CCCCCC"/>
<path d="M216.509 84.6292C216.151 84.6289 215.808 84.4724 215.555 84.1939L184.37 49.8029C184.245 49.6654 184.145 49.5017 184.078 49.3215C184.01 49.1413 183.975 48.948 183.976 48.753V1.48682C183.975 1.284 184.012 1.08321 184.085 0.897081C184.158 0.710951 184.266 0.543509 184.4 0.405286C184.535 0.265349 184.695 0.157454 184.869 0.0882828C185.043 0.0191117 185.229 -0.00985995 185.414 0.00315421C209.689 1.6803 228.706 24.0265 228.706 50.8762C228.706 63.0724 224.742 74.8646 217.531 84.1121C217.41 84.267 217.261 84.3928 217.094 84.4816C216.926 84.5704 216.744 84.6203 216.559 84.6283C216.542 84.6289 216.526 84.6292 216.509 84.6292Z" fill="#CCCCCC"/>
<path d="M185.328 101.752C184.983 101.752 184.652 101.608 184.401 101.348C184.266 101.21 184.159 101.042 184.086 100.856C184.012 100.669 183.975 100.468 183.976 100.265V57.6189C183.976 57.3253 184.055 57.0382 184.203 56.7941C184.351 56.5499 184.561 56.3596 184.807 56.2473C185.053 56.1349 185.323 56.1055 185.585 56.1627C185.846 56.22 186.086 56.3613 186.274 56.5689L213.487 86.5793C213.616 86.7221 213.718 86.8923 213.786 87.0797C213.853 87.267 213.886 87.4676 213.881 87.6693C213.876 87.8709 213.834 88.0694 213.758 88.2527C213.682 88.4359 213.572 88.6002 213.436 88.7353C205.689 96.4276 195.815 101.013 185.411 101.75C185.383 101.751 185.355 101.752 185.328 101.752Z" fill="#35CC8C"/>
<path d="M257.343 102.699C252.977 111.237 246.813 118.769 239.755 124.738C224.07 138.003 204.203 145.198 184.604 146.707C174.531 147.488 164.409 146.729 154.525 144.454C144.469 142.13 134.878 138.038 125.589 133.259C116.131 128.391 106.963 122.871 97.547 117.912C88.1404 112.957 78.4726 108.732 68.3435 105.966C69.085 105.822 69.8043 105.664 70.5043 105.485C71.1662 105.675 71.826 105.871 72.4837 106.075C92.2899 112.181 109.77 124.215 128.367 133.511C137.694 138.175 147.349 141.979 157.446 144.015C167.521 146.032 177.803 146.476 187.99 145.334C207.535 143.166 227.418 135.213 242.444 120.986C248.392 115.38 253.348 108.609 257.063 101.015C257.165 101.576 257.258 102.138 257.343 102.699Z" fill="#CCCCCC"/>
<path d="M60.7098 177.666C80.2233 183.681 97.4775 195.452 115.769 204.685C115.581 204.976 115.393 205.268 115.203 205.559C114.738 205.324 114.277 205.089 113.815 204.85C104.358 199.982 95.1895 194.462 85.7731 189.503C76.1659 184.443 66.2882 180.144 55.9237 177.382C41.597 173.576 26.7975 172.415 12.1265 173.946C12.0914 173.595 12.0597 173.241 12.031 172.89C28.3856 171.187 44.8847 172.806 60.7098 177.666Z" fill="#CCCCCC"/>
<path d="M139.14 211.527H0.36424C0.267637 211.527 0.174991 211.485 0.106683 211.41C0.0383749 211.334 0 211.232 0 211.126C0 211.019 0.0383749 210.917 0.106683 210.842C0.174991 210.766 0.267637 210.724 0.36424 210.724H139.14C139.236 210.724 139.329 210.766 139.397 210.842C139.466 210.917 139.504 211.019 139.504 211.126C139.504 211.232 139.466 211.334 139.397 211.41C139.329 211.485 139.236 211.527 139.14 211.527Z" fill="#CCCCCC"/>
<path d="M56.5009 157.338C61.4417 157.338 65.447 152.921 65.447 147.472C65.447 142.024 61.4417 137.607 56.5009 137.607C51.5601 137.607 47.5548 142.024 47.5548 147.472C47.5548 152.921 51.5601 157.338 56.5009 157.338Z" fill="#A0616A"/>
<path d="M89.9741 217.087L90.1828 222.006L73.077 225.236L72.7689 217.976L89.9741 217.087Z" fill="#A0616A"/>
<path d="M94.2447 215.609L94.7195 226.792L94.5376 226.801C93.1324 226.903 91.7323 226.53 90.5247 225.731C89.4327 224.964 88.8039 223.901 88.7545 222.738L88.4645 215.907L94.2447 215.609Z" fill="#2F2E41"/>
<path d="M89.4952 225.182L93.9608 225.181L96.085 206.186L89.4944 206.187L89.4952 225.182Z" fill="#A0616A"/>
<path d="M88.3562 223.574L97.1503 223.573C97.8863 223.573 98.6154 223.733 99.2954 224.044C99.9754 224.354 100.593 224.809 101.114 225.383C101.634 225.957 102.047 226.639 102.328 227.388C102.61 228.138 102.755 228.942 102.755 229.754V229.954L88.3565 229.955L88.3562 223.574Z" fill="#2F2E41"/>
<path d="M47.3372 220.58C47.8264 220.253 48.2448 219.812 48.5627 219.288C48.8806 218.763 49.0903 218.168 49.1772 217.545C49.264 216.921 49.2258 216.284 49.0653 215.679C48.9048 215.073 48.6258 214.514 48.2481 214.04L51.8123 174.934L43.3236 175.589L42.4893 213.823C41.8097 214.575 41.4041 215.577 41.3492 216.637C41.2943 217.697 41.5941 218.743 42.1916 219.576C42.7892 220.409 43.643 220.971 44.5914 221.156C45.5397 221.341 46.5167 221.136 47.3372 220.58Z" fill="#A0616A"/>
<path d="M51.7714 181.713L42.9753 180.531C42.725 180.497 42.4842 180.404 42.2694 180.259C42.0546 180.113 41.8707 179.919 41.7303 179.688C41.5899 179.457 41.4962 179.195 41.4558 178.921C41.4153 178.646 41.429 178.365 41.4958 178.097L43.8381 168.703C44.0014 167.292 44.6654 166.01 45.6846 165.138C46.7038 164.266 47.995 163.875 49.2751 164.052C50.5551 164.228 51.7196 164.957 52.5131 166.078C53.3066 167.2 53.6645 168.623 53.5081 170.035L53.7375 179.742C53.744 180.02 53.6961 180.297 53.597 180.552C53.498 180.808 53.3501 181.037 53.1636 181.224C52.977 181.411 52.756 181.552 52.5158 181.636C52.2755 181.72 52.0216 181.747 51.7714 181.713Z" fill="#35CC8C"/>
<path d="M50.5406 226.119C49.4747 226.039 48.4469 225.65 47.5612 224.991C46.6754 224.332 45.9631 223.427 45.4961 222.367C45.0292 221.307 44.8242 220.131 44.9019 218.955C44.9795 217.78 45.3372 216.649 45.9385 215.675L51.6841 209.097L72.6279 188.41L83.8248 178.164C84.4781 177.566 85.2584 177.161 86.0926 176.986C86.9267 176.812 87.7873 176.874 88.5937 177.167C89.4002 177.459 90.126 177.973 90.7032 178.659C91.2804 179.346 91.6901 180.183 91.8938 181.092L97.7435 207.189C97.8417 207.623 97.79 208.082 97.5986 208.476C97.4071 208.871 97.0895 209.173 96.7075 209.324L90.3302 211.855C90.1166 211.94 89.8894 211.975 89.663 211.958C89.4366 211.941 89.2158 211.872 89.0147 211.756C88.8136 211.64 88.6366 211.479 88.4949 211.284C88.3531 211.088 88.2497 210.862 88.1912 210.62L85.7654 200.588L72.2674 214.818L76.4788 216.528C76.865 216.687 77.1832 216.999 77.3705 217.404C77.5578 217.809 77.6004 218.277 77.4901 218.715L76.1292 224.032C76.0353 224.403 75.8361 224.731 75.5607 224.968C75.2854 225.205 74.9484 225.338 74.5994 225.348L50.5406 226.119Z" fill="#2F2E41"/>
<path d="M49.9686 211.287L49.4146 188.972L45.92 179.184C45.2065 177.188 44.8973 175.043 45.0141 172.901C45.131 170.758 45.671 168.67 46.5963 166.782C47.5217 164.894 48.8101 163.251 50.3713 161.97C51.9325 160.688 53.7288 159.799 55.6345 159.363C55.9222 159.297 56.209 159.233 56.495 159.17C58.3231 158.77 60.2069 158.796 62.0251 159.247C63.8434 159.698 65.556 160.564 67.0526 161.789C68.5493 163.014 69.7969 164.571 70.7151 166.359C71.6334 168.148 72.202 170.128 72.3843 172.174L74.0265 188.973L74.0198 189.005C71.4013 201.85 63.8239 208.919 50.173 211.252L49.9686 211.287Z" fill="#35CC8C"/>
<path d="M58.2331 195.786C58.4323 195.752 58.6336 195.736 58.8352 195.737L68.9462 179.229L67.0313 174.875L72.6127 170.829L76.6819 178.174C77.0106 178.768 77.1559 179.463 77.096 180.155C77.0361 180.847 76.7742 181.499 76.3496 182.013L62.5113 198.769C62.7286 199.591 62.7139 200.466 62.469 201.279C62.2241 202.092 61.7607 202.803 61.1405 203.318C60.5202 203.833 59.7724 204.127 58.9967 204.162C58.2209 204.197 57.4538 203.971 56.7975 203.513C56.1412 203.056 55.6268 202.389 55.3227 201.601C55.0186 200.813 54.9391 199.942 55.095 199.103C55.2508 198.264 55.6346 197.497 56.1951 196.905C56.7557 196.313 57.4665 195.922 58.2331 195.786Z" fill="#A0616A"/>
<path d="M68.0617 178.922C67.8348 178.853 67.6243 178.73 67.4444 178.562C67.2646 178.394 67.1197 178.185 67.0196 177.95L63.5227 169.739C62.856 168.632 62.6144 167.278 62.8509 165.975C63.0875 164.672 63.7828 163.526 64.7845 162.788C65.7863 162.049 67.0126 161.779 68.1949 162.036C69.3771 162.293 70.4186 163.056 71.0913 164.159L76.6162 170.92C76.7738 171.113 76.8919 171.341 76.9624 171.589C77.0329 171.837 77.0541 172.099 77.0246 172.356C76.9952 172.614 76.9156 172.862 76.7915 173.082C76.6674 173.303 76.5016 173.492 76.3054 173.636L69.4099 178.687C69.2138 178.831 68.9918 178.927 68.7591 178.967C68.5264 179.008 68.2885 178.992 68.0617 178.922Z" fill="#35CC8C"/>
<path d="M175.157 155.125H145.628C145.202 155.125 144.794 154.939 144.493 154.607C144.192 154.275 144.023 153.825 144.023 153.355C144.023 152.886 144.192 152.436 144.493 152.104C144.794 151.772 145.202 151.586 145.628 151.586H175.157C175.582 151.586 175.991 151.772 176.292 152.104C176.593 152.436 176.762 152.886 176.762 153.355C176.762 153.825 176.593 154.275 176.292 154.607C175.991 154.939 175.582 155.125 175.157 155.125Z" fill="#CCCCCC"/>
<path d="M136.801 156.895C136.134 156.895 135.483 156.677 134.929 156.269C134.374 155.86 133.942 155.28 133.687 154.601C133.432 153.922 133.366 153.174 133.496 152.453C133.626 151.732 133.947 151.07 134.418 150.55C134.889 150.031 135.49 149.677 136.144 149.533C136.797 149.39 137.475 149.464 138.091 149.745C138.707 150.026 139.233 150.502 139.603 151.114C139.973 151.725 140.171 152.443 140.171 153.179C140.17 154.164 139.815 155.109 139.183 155.805C138.551 156.502 137.694 156.894 136.801 156.895Z" fill="#3F3D56"/>
<path d="M175.157 165.744H145.628C145.202 165.744 144.794 165.558 144.493 165.226C144.192 164.894 144.023 164.444 144.023 163.974C144.023 163.505 144.192 163.055 144.493 162.723C144.794 162.391 145.202 162.204 145.628 162.204H175.157C175.582 162.204 175.991 162.391 176.292 162.723C176.593 163.055 176.762 163.505 176.762 163.974C176.762 164.444 176.593 164.894 176.292 165.226C175.991 165.558 175.582 165.744 175.157 165.744Z" fill="#CCCCCC"/>
<path d="M136.801 167.514C136.134 167.514 135.483 167.296 134.929 166.888C134.374 166.479 133.942 165.899 133.687 165.22C133.432 164.541 133.366 163.793 133.496 163.072C133.626 162.351 133.947 161.689 134.418 161.169C134.889 160.65 135.49 160.296 136.144 160.152C136.797 160.009 137.475 160.082 138.091 160.364C138.707 160.645 139.233 161.121 139.603 161.733C139.973 162.344 140.171 163.062 140.171 163.797C140.17 164.783 139.815 165.727 139.183 166.424C138.551 167.121 137.695 167.513 136.801 167.514Z" fill="#3F3D56"/>
<path d="M175.157 176.363H145.628C145.202 176.363 144.794 176.176 144.493 175.845C144.192 175.513 144.023 175.062 144.023 174.593C144.023 174.124 144.192 173.674 144.493 173.342C144.794 173.01 145.202 172.823 145.628 172.823H175.157C175.582 172.823 175.991 173.01 176.292 173.342C176.593 173.674 176.762 174.124 176.762 174.593C176.762 175.062 176.593 175.513 176.292 175.845C175.991 176.176 175.582 176.363 175.157 176.363Z" fill="#CCCCCC"/>
<path d="M136.801 178.133C136.134 178.133 135.483 177.915 134.929 177.506C134.374 177.098 133.942 176.518 133.687 175.838C133.432 175.159 133.366 174.412 133.496 173.691C133.626 172.97 133.947 172.308 134.418 171.788C134.889 171.268 135.49 170.914 136.144 170.771C136.797 170.628 137.475 170.701 138.091 170.983C138.707 171.264 139.233 171.74 139.603 172.351C139.973 172.963 140.171 173.681 140.171 174.416C140.17 175.402 139.815 176.346 139.183 177.043C138.551 177.74 137.694 178.132 136.801 178.133Z" fill="#3F3D56"/>
<path d="M183.641 163.927H195.838C195.923 163.927 196.004 163.889 196.065 163.823C196.125 163.756 196.159 163.666 196.159 163.573V80.4196C196.159 80.3257 196.125 80.2357 196.065 80.1693C196.004 80.1029 195.923 80.0656 195.838 80.0656C195.753 80.0656 195.671 80.1029 195.611 80.1693C195.55 80.2357 195.517 80.3257 195.517 80.4196V163.219H183.641C183.599 163.218 183.557 163.228 183.518 163.245C183.479 163.263 183.443 163.289 183.413 163.322C183.383 163.355 183.36 163.394 183.343 163.437C183.327 163.48 183.319 163.526 183.319 163.573C183.319 163.619 183.327 163.665 183.343 163.708C183.36 163.751 183.383 163.79 183.413 163.823C183.443 163.856 183.479 163.882 183.518 163.9C183.557 163.918 183.599 163.927 183.641 163.927Z" fill="#3F3D56"/>
<path d="M235.904 26.0716C235.089 26.144 234.272 25.9481 233.557 25.5087C232.843 25.0693 232.262 24.406 231.889 23.6028C231.517 22.7996 231.368 21.8925 231.463 20.9962C231.558 20.1 231.891 19.2548 232.421 18.5676C232.952 17.8804 233.655 17.382 234.442 17.1355C235.229 16.889 236.064 16.9054 236.843 17.1826C237.622 17.4599 238.308 17.9855 238.816 18.6931C239.324 19.4006 239.63 20.2584 239.696 21.1578C239.784 22.3638 239.434 23.5591 238.723 24.4806C238.012 25.4021 236.998 25.9744 235.904 26.0716ZM235.853 25.372C236.543 25.3107 237.201 25.025 237.744 24.5513C238.287 24.0775 238.69 23.4368 238.903 22.7102C239.116 21.9837 239.128 21.2039 238.939 20.4694C238.75 19.735 238.368 19.0789 237.84 18.5841C237.313 18.0893 236.665 17.7781 235.977 17.6897C235.289 17.6014 234.593 17.7399 233.977 18.0878C233.361 18.4356 232.852 18.9772 232.515 19.6441C232.178 20.3109 232.027 21.073 232.083 21.8341C232.12 22.3394 232.247 22.8317 232.456 23.283C232.665 23.7343 232.953 24.1356 233.304 24.4641C233.654 24.7927 234.059 25.0419 234.496 25.1977C234.934 25.3535 235.395 25.4127 235.853 25.372Z" fill="#CCCCCC"/>
<path d="M250.149 14.3655C251.555 14.3655 252.695 13.1086 252.695 11.558C252.695 10.0075 251.555 8.75052 250.149 8.75052C248.743 8.75052 247.603 10.0075 247.603 11.558C247.603 13.1086 248.743 14.3655 250.149 14.3655Z" fill="#CCCCCC"/>
<path d="M262.663 4.21223C263.401 4.21223 264 3.55196 264 2.73748C264 1.923 263.401 1.26273 262.663 1.26273C261.924 1.26273 261.325 1.923 261.325 2.73748C261.325 3.55196 261.924 4.21223 262.663 4.21223Z" fill="#CCCCCC"/>
<path d="M216.466 115.87C216.014 116.623 215.371 117.211 214.617 117.561C213.862 117.91 213.031 118.005 212.228 117.834C211.425 117.662 210.685 117.232 210.104 116.597C209.522 115.962 209.125 115.152 208.961 114.268C208.797 113.384 208.875 112.466 209.184 111.631C209.493 110.795 210.02 110.08 210.698 109.574C211.376 109.069 212.175 108.797 212.993 108.793C213.811 108.788 214.612 109.051 215.295 109.548C216.209 110.216 216.846 111.257 217.065 112.442C217.285 113.627 217.069 114.86 216.466 115.87ZM210.094 111.227C209.712 111.864 209.51 112.611 209.514 113.375C209.517 114.138 209.726 114.883 210.114 115.516C210.501 116.148 211.05 116.64 211.691 116.929C212.332 117.217 213.036 117.29 213.715 117.137C214.393 116.984 215.015 116.613 215.502 116.07C215.989 115.528 216.319 114.838 216.451 114.088C216.582 113.339 216.509 112.563 216.241 111.859C215.973 111.155 215.521 110.555 214.944 110.134C214.169 109.571 213.223 109.369 212.314 109.574C211.404 109.779 210.606 110.373 210.094 111.227Z" fill="#CCCCCC"/>
<path d="M221.422 132.648C222.828 132.648 223.968 131.391 223.968 129.841C223.968 128.29 222.828 127.033 221.422 127.033C220.016 127.033 218.876 128.29 218.876 129.841C218.876 131.391 220.016 132.648 221.422 132.648Z" fill="#CCCCCC"/>
<path d="M228.523 145.7C229.262 145.7 229.86 145.039 229.86 144.225C229.86 143.411 229.262 142.75 228.523 142.75C227.785 142.75 227.186 143.411 227.186 144.225C227.186 145.039 227.785 145.7 228.523 145.7Z" fill="#CCCCCC"/>
<path d="M113.744 39.247C113.38 38.4389 113.241 37.53 113.346 36.635C113.45 35.7401 113.793 34.8993 114.33 34.2191C114.868 33.5389 115.576 33.0498 116.366 32.8136C117.156 32.5774 117.991 32.6048 118.767 32.8922C119.542 33.1796 120.223 33.7143 120.723 34.4284C121.223 35.1426 121.52 36.0043 121.576 36.9045C121.632 37.8047 121.445 38.703 121.038 39.4858C120.631 40.2686 120.022 40.9007 119.29 41.3023C118.307 41.8393 117.171 41.9246 116.132 41.5393C115.092 41.154 114.233 40.3296 113.744 39.247ZM120.583 35.4988C120.275 34.8151 119.79 34.2475 119.19 33.8677C118.589 33.488 117.9 33.3132 117.209 33.3655C116.518 33.4177 115.857 33.6947 115.309 34.1613C114.761 34.6279 114.351 35.2633 114.131 35.987C113.91 36.7107 113.889 37.4903 114.07 38.2272C114.252 38.9641 114.627 39.6251 115.149 40.1268C115.671 40.6285 116.316 40.9482 117.002 41.0455C117.689 41.1429 118.387 41.0135 119.007 40.6737C119.837 40.2172 120.47 39.416 120.765 38.4459C121.061 37.4757 120.996 36.4159 120.583 35.4988Z" fill="#CCCCCC"/>
<path d="M100.299 39.7711C101.705 39.7711 102.845 38.5141 102.845 36.9636C102.845 35.4131 101.705 34.1561 100.299 34.1561C98.8933 34.1561 97.7535 35.4131 97.7535 36.9636C97.7535 38.5141 98.8933 39.7711 100.299 39.7711Z" fill="#CCCCCC"/>
<path d="M85.4531 37.9939C86.1917 37.9939 86.7904 37.3336 86.7904 36.5192C86.7904 35.7047 86.1917 35.0444 85.4531 35.0444C84.7146 35.0444 84.1158 35.7047 84.1158 36.5192C84.1158 37.3336 84.7146 37.9939 85.4531 37.9939Z" fill="#CCCCCC"/>
<path d="M65.9546 148.336L65.5817 147.288C64.5529 144.396 62.0929 142.173 59.4602 141.757C58.1468 141.567 56.8115 141.793 55.6097 142.407C54.4079 143.022 53.389 144 52.6715 145.228C52.0625 146.393 51.5818 147.634 51.2393 148.924C51.122 149.309 51.0037 149.587 50.7765 149.671C50.5207 149.772 50.2662 149.599 49.8443 149.31C49.7502 149.246 49.6415 149.212 49.5309 149.214C49.4202 149.215 49.3122 149.251 49.2194 149.318C49.1266 149.384 49.0529 149.478 49.0068 149.589C48.9607 149.7 48.9441 149.823 48.9591 149.944L49.4015 153.427L49.0313 153.063C46.6227 150.699 46.1279 146.25 47.8678 143.428L43.9081 144.325L44.0865 143.949C45.731 140.449 48.5655 137.809 51.9702 136.607L48.1773 135.686L48.5606 135.425C51.9573 133.118 56.4382 133.183 59.9758 135.587C61.7525 136.842 63.2241 138.557 64.2624 140.583C65.3007 142.609 65.8743 144.884 65.9333 147.21L65.9546 148.336Z" fill="#2F2E41"/>
</g>
<defs>
<clipPath id="clip0_13_1383">
<rect width="264" height="230" fill="white"/>
</clipPath>
</defs>
</svg>
