<svg width="200" height="230" viewBox="0 0 200 230" fill="none" xmlns="http://www.w3.org/2000/svg">
<g clip-path="url(#clip0_11_382)">
<path d="M95.9785 215.768L95.7236 209.998C95.6971 209.984 95.6706 209.97 95.644 209.955C92.9128 208.513 89.7826 211.125 90.6549 214.103C91.4757 216.906 92.0272 219.927 93.5296 222.38C94.4174 223.805 95.6122 225.011 97.0255 225.908C98.4388 226.804 100.034 227.369 101.694 227.561L105.164 229.7C105.64 227.027 105.535 224.282 104.856 221.655C104.178 219.027 102.941 216.579 101.232 214.478C100.261 213.31 99.1486 212.269 97.9198 211.38C97.0887 213.586 95.9785 215.768 95.9785 215.768Z" fill="#CCCCCC"/>
<path d="M64.9112 157.209C58.2306 150.272 48.5494 146.293 38.3501 146.293L37.9567 146.294C31.2386 146.297 24.6405 144.503 18.837 141.096L18.2331 140.741L18.7195 140.237C21.3528 137.494 23.5516 134.359 25.2388 130.944C24.0405 132.068 22.6112 132.914 21.0522 133.421C19.4932 133.929 17.8425 134.084 16.2171 133.878C14.501 133.672 12.8535 133.077 11.3982 132.139C9.94285 131.2 8.71751 129.942 7.81404 128.459C4.24927 122.635 7.62939e-06 114.372 7.62939e-06 108.077C0.00555675 102.757 1.11206 97.4953 3.24898 92.629C5.38591 87.7626 8.50637 83.3979 12.4115 79.813C14.8838 77.5685 16.8585 74.8246 18.2069 71.7602C19.5553 68.6958 20.2471 65.3797 20.2373 62.0281L20.2353 61.5511C20.2346 57.1384 20.7702 52.7423 21.8301 48.4606L21.9377 48.0282L22.3795 48.0437C25.2287 48.1414 28.0794 47.9009 30.8728 47.3273C28.2526 47.0037 25.6894 46.3173 23.2558 45.2876L22.7805 45.0939L22.9418 44.6036C34.0614 37.6716 59.1615 41.2613 73.7304 7.70055C85.5437 -19.5127 127.225 31.8577 127.225 61.5511C127.225 64.581 124.247 68.5848 126.477 70.5874C150.577 92.2355 133.948 106.137 128.705 120.124C127.461 123.443 130.158 127.086 130.158 130.677C130.158 131.286 130.143 131.915 130.113 132.546L130.066 133.516L129.263 132.978C127.673 131.929 126.199 130.712 124.867 129.348C126.249 132.55 126.901 136.024 126.773 139.513C126.646 143.002 125.743 146.418 124.131 149.51C121.606 154.309 119.162 157.746 116.869 159.722C109.523 166.052 100.053 169.317 90.3946 168.85C80.7368 168.382 71.6209 164.218 64.9112 157.209Z" fill="#CCCCCC"/>
<path d="M105.26 229.415C105.424 229.415 105.583 229.355 105.707 229.247C105.831 229.138 105.912 228.988 105.935 228.825C105.964 228.62 108.805 207.992 106.253 180.578C103.897 155.26 96.3312 118.793 73.6656 88.8436C73.6113 88.7717 73.5435 88.7113 73.466 88.6658C73.3885 88.6203 73.3028 88.5906 73.2139 88.5784C73.125 88.5663 73.0346 88.5719 72.9479 88.595C72.8611 88.618 72.7797 88.6581 72.7084 88.7128C72.637 88.7676 72.5771 88.836 72.532 88.9141C72.4869 88.9922 72.4575 89.0784 72.4456 89.168C72.4336 89.2575 72.4393 89.3485 72.4623 89.4358C72.4853 89.5231 72.5252 89.605 72.5797 89.6768C95.0495 119.368 102.555 155.567 104.894 180.706C107.431 207.961 104.612 228.427 104.583 228.631C104.57 228.728 104.577 228.828 104.605 228.922C104.632 229.017 104.68 229.104 104.744 229.178C104.808 229.253 104.888 229.312 104.977 229.353C105.066 229.394 105.162 229.415 105.26 229.415Z" fill="#3F3D56"/>
<path d="M86.7637 131.089C86.9079 131.089 87.0484 131.043 87.1651 130.958C87.2818 130.873 87.3687 130.752 87.4133 130.614C87.4579 130.476 87.458 130.327 87.4135 130.189C87.369 130.051 87.2822 129.931 87.1655 129.846C87.0833 129.785 78.7916 123.77 66.3956 119.2C54.9364 114.976 37.5111 111.147 19.572 116.895C19.4864 116.923 19.407 116.967 19.3384 117.025C19.2697 117.083 19.2132 117.154 19.1719 117.234C19.1306 117.315 19.1054 117.402 19.0978 117.492C19.0902 117.582 19.1003 117.673 19.1275 117.759C19.1547 117.845 19.1985 117.925 19.2564 117.994C19.3143 118.063 19.3851 118.12 19.4648 118.161C19.5446 118.203 19.6316 118.228 19.7211 118.235C19.8105 118.243 19.9005 118.233 19.9859 118.205C37.5575 112.575 54.667 116.341 65.9262 120.491C78.1452 124.996 86.2821 130.898 86.3629 130.958C86.4793 131.043 86.6197 131.089 86.7637 131.089Z" fill="#3F3D56"/>
<path d="M118.006 52.7438C118.016 52.599 117.981 52.4546 117.905 52.3313C117.829 52.2079 117.716 52.112 117.582 52.0572C117.449 52.0025 117.302 51.9917 117.162 52.0265C117.022 52.0612 116.896 52.1397 116.803 52.2507C116.738 52.329 110.182 60.2226 104.762 72.3419C99.7522 83.5453 94.7039 100.769 99.1066 119.198C99.1489 119.375 99.2594 119.528 99.4138 119.623C99.5682 119.718 99.7538 119.748 99.9298 119.705C100.106 119.662 100.258 119.551 100.352 119.396C100.447 119.24 100.476 119.053 100.434 118.876C96.1217 100.825 101.085 83.9142 106.007 72.9063C111.349 60.9599 117.783 53.2137 117.847 53.1368C117.94 53.0261 117.995 52.8885 118.006 52.7438Z" fill="#3F3D56"/>
<path d="M117.082 88.1827C117.658 92.8613 120.878 96.7188 125.56 96.7188C127.808 96.7188 129.965 95.8194 131.555 94.2186C133.145 92.6178 134.038 90.4466 134.038 88.1827C134.038 83.4684 130.222 80.0826 125.56 79.6467C120.613 79.1843 116.343 82.1761 117.082 88.1827Z" fill="#2F2E41"/>
<path d="M129.487 225.655L132.715 225.655L134.251 213.117L129.486 213.117L129.487 225.655Z" fill="#FFB6B6"/>
<path d="M129.373 229.046L139.301 229.046V228.92C139.301 227.888 138.894 226.898 138.169 226.168C137.445 225.439 136.462 225.029 135.437 225.029L133.623 223.644L130.24 225.029L129.373 225.029L129.373 229.046Z" fill="#2F2E41"/>
<path d="M116.77 225.655L119.998 225.655L121.534 213.117L116.769 213.117L116.77 225.655Z" fill="#FFB6B6"/>
<path d="M116.656 229.046L126.584 229.046V228.92C126.584 227.888 126.177 226.898 125.452 226.168C124.728 225.439 123.745 225.029 122.72 225.029L120.906 223.644L117.523 225.029L116.656 225.029L116.656 229.046Z" fill="#2F2E41"/>
<path d="M140.597 147.127L142.879 155.006L140.19 188.377C140.19 188.377 141.575 190.464 140.597 190.464C139.619 190.464 138.364 190.926 139.154 192.172C139.945 193.418 137.244 197.892 137.244 197.892L133.423 221.653L128.555 221.581C128.555 221.581 126.08 220.192 127.469 218.789C128.858 217.385 129.836 217.385 128.532 216.072C127.228 214.758 127.228 215.154 127.228 214.135C127.228 213.117 125.921 200.67 129.02 195.895L128.086 176.428L125.887 195.523L121.358 220.996L116.669 220.957C116.669 220.957 114.503 218.855 114.507 217.299C114.511 215.743 115.845 215.614 114.852 214.694C113.858 213.774 113.858 199.636 116.793 191.777C116.793 191.777 118.453 187.386 116.789 185.882C115.126 184.377 116.787 182.655 116.787 182.655C116.787 182.655 119.423 181.696 116.785 178.933C114.147 176.169 116.771 156.625 116.771 156.625C116.771 156.625 113.887 148.735 116.808 145.633C119.728 142.531 140.597 147.127 140.597 147.127Z" fill="#2F2E41"/>
<path d="M99.9433 160.702L104.016 150.793L107.224 152.588L105.287 162.668C105.481 163.307 105.494 163.987 105.325 164.633C105.156 165.279 104.811 165.864 104.33 166.324C103.849 166.783 103.25 167.098 102.6 167.234C101.951 167.369 101.276 167.32 100.653 167.09C100.03 166.861 99.4833 166.462 99.0735 165.936C98.6637 165.411 98.4075 164.781 98.3337 164.118C98.2599 163.454 98.3715 162.783 98.6558 162.179C98.9402 161.576 99.386 161.065 99.9433 160.702Z" fill="#FFB6B6"/>
<path d="M168.281 82.3448L162.084 91.0671L159.363 88.5871L163.519 79.2113C163.473 78.545 163.613 77.8792 163.923 77.2887C164.233 76.6983 164.701 76.2066 165.273 75.8689C165.845 75.5312 166.5 75.3609 167.163 75.3772C167.826 75.3934 168.471 75.5956 169.026 75.961C169.582 76.3263 170.025 76.8404 170.306 77.4454C170.587 78.0503 170.694 78.7222 170.617 79.3854C170.539 80.0487 170.28 80.6771 169.867 81.1998C169.454 81.7226 168.905 82.1192 168.281 82.3448Z" fill="#FFB6B6"/>
<path d="M141.212 147.935C145.231 154.212 125.028 162.177 117.276 158.979C115.919 158.419 111.25 156.57 114.441 154.005C117.633 151.441 114.071 151.08 113.987 149.411C113.931 148.295 114.789 145.847 113.893 145.952C112.998 146.057 111.95 144.514 113.9 143.849C115.85 143.185 113.921 142.58 113.938 141.949C114.125 135.069 119.367 124.126 119.367 124.126L109.92 148.44C109.92 148.44 109.99 152.646 108.786 151.361C107.581 150.075 107.669 154.236 107.669 154.236C107.669 154.236 105.877 155.494 106.907 156.195C107.937 156.895 105.798 159.049 105.798 159.049L100.807 158.69C100.807 158.69 100.885 154.957 101.738 154.132C102.59 153.306 102.171 152.007 102.171 152.007C102.171 152.007 104.39 150.029 102.902 148.424C100.989 146.359 107.964 111.479 110.372 111.825C110.712 110.157 111.504 108.617 112.659 107.374C113.815 106.131 115.289 105.234 116.919 104.782L122.31 103.287L123.267 99.4634H130.858L132.18 101.976L137.951 104.598C139.038 103.054 139.85 101.427 144.301 100.899C144.301 100.899 156.295 89.9118 155.71 89.0539C155.124 88.1959 156.983 86.1874 156.983 86.1874C156.983 86.1874 158.571 85.6641 157.675 85.3848C156.779 85.1054 158.473 84.4595 158.473 84.4595C158.473 84.4595 160.041 84.0445 159.302 83.4981C158.562 82.9517 161.77 82.5928 161.77 82.5928L165.933 86.0127L165.092 87.4492C165.092 87.4492 165.605 89.4052 164.936 88.6911C164.266 87.977 164.14 90.0494 164.14 90.0494C164.14 90.0494 163.798 92.3186 161.77 93.0023C159.743 93.686 158.205 100.181 158.205 100.181C153.423 106.441 147.78 111.325 141.093 114.539C143.699 117.551 141.212 147.935 141.212 147.935Z" fill="#35CC8C"/>
<path d="M126.497 97.2256C130.649 97.2256 134.015 93.8367 134.015 89.6562C134.015 85.4758 130.649 82.0869 126.497 82.0869C122.345 82.0869 118.979 85.4758 118.979 89.6562C118.979 93.8367 122.345 97.2256 126.497 97.2256Z" fill="#FFB6B6"/>
<path d="M118.712 90.4809C118.95 92.1257 120.343 94.4206 120.017 94.4206C119.691 94.4206 117.372 87.6399 119.691 87.1978C121.372 86.8771 121.748 87.1584 123.32 86.4722L123.098 86.6824C124.138 87.444 125.586 86.9746 126.773 86.4788C127.963 85.9864 129.408 85.5169 130.451 86.2753C131.107 86.7513 131.384 87.5787 131.791 88.2812C132.199 88.9871 132.952 89.6536 133.728 89.4369C134.351 89.2629 134.71 88.5603 134.706 87.9102C134.703 87.2602 133.862 86.6418 134.146 86.0586C134.985 84.3302 134.23 83.1522 132.401 82.3389C131.736 82.2371 131.071 82.1331 130.405 82.027C130.754 81.5408 131.177 81.1132 131.658 80.7597C131.454 80.2351 131.103 79.782 130.647 79.4563C130.115 79.1378 129.457 79.1608 128.84 79.1937C127.464 79.2659 126.089 79.3381 124.715 79.4103C123.698 79.4629 122.645 79.5252 121.735 79.9947C120.6 80.5824 119.857 81.7282 119.316 82.8937C118.103 85.5136 118.295 87.6213 118.712 90.4809Z" fill="#2F2E41"/>
<path d="M87.4382 229.899L161.376 230C161.479 230 161.578 229.959 161.651 229.886C161.723 229.812 161.764 229.713 161.764 229.609C161.764 229.505 161.723 229.406 161.651 229.333C161.578 229.259 161.479 229.218 161.376 229.218L87.4382 229.117C87.3353 229.117 87.2365 229.158 87.1637 229.232C87.0909 229.305 87.05 229.405 87.05 229.508C87.05 229.612 87.0909 229.711 87.1637 229.785C87.2365 229.858 87.3353 229.899 87.4382 229.899Z" fill="#CACACA"/>
<path d="M60.6967 195.824C60.833 194.88 59.8518 193.956 58.5052 193.759C57.1585 193.561 55.9563 194.166 55.82 195.109C55.6837 196.053 56.6649 196.977 58.0116 197.174C59.3582 197.372 60.5604 196.767 60.6967 195.824Z" fill="#E6E6E6"/>
<path d="M76.7304 194.248C76.8667 193.305 75.8855 192.381 74.5388 192.183C73.1922 191.986 71.99 192.591 71.8537 193.534C71.7174 194.477 72.6986 195.402 74.0452 195.599C75.3919 195.796 76.5941 195.192 76.7304 194.248Z" fill="#3F3D56"/>
<path d="M56.3062 182.754C56.4425 181.811 55.4613 180.886 54.1147 180.689C52.768 180.492 51.5658 181.097 51.4295 182.04C51.2932 182.983 52.2744 183.908 53.6211 184.105C54.9677 184.302 56.1699 183.698 56.3062 182.754Z" fill="#FF6584"/>
<path d="M49.3392 177.401C49.3457 176.535 48.866 175.829 48.2677 175.825C47.6694 175.82 47.1791 176.518 47.1726 177.384C47.1661 178.25 47.6458 178.956 48.2441 178.961C48.8424 178.965 49.3327 178.267 49.3392 177.401Z" fill="#E6E6E6"/>
<path d="M46.9765 167.43C46.983 166.564 46.5033 165.858 45.905 165.854C45.3067 165.849 44.8165 166.547 44.8099 167.413C44.8034 168.279 45.2832 168.985 45.8815 168.989C46.4798 168.994 46.97 168.296 46.9765 167.43Z" fill="#3F3D56"/>
<path d="M65.3494 184.978C65.3559 184.112 64.8762 183.407 64.2779 183.402C63.6796 183.398 63.1893 184.096 63.1828 184.962C63.1763 185.828 63.656 186.533 64.2543 186.538C64.8526 186.543 65.3429 185.844 65.3494 184.978Z" fill="#E6E6E6"/>
<path d="M57.6012 188.873C57.6077 188.007 57.128 187.302 56.5297 187.297C55.9314 187.293 55.4411 187.991 55.4346 188.857C55.4281 189.723 55.9078 190.428 56.5061 190.433C57.1044 190.438 57.5947 189.739 57.6012 188.873Z" fill="#FF6584"/>
<path d="M68.3869 196.073C68.3934 195.207 67.9137 194.501 67.3154 194.496C66.7171 194.492 66.2268 195.19 66.2203 196.056C66.2138 196.922 66.6936 197.628 67.2919 197.632C67.8902 197.637 68.3804 196.938 68.3869 196.073Z" fill="#3F3D56"/>
<path d="M183.954 145.264C184.09 144.321 183.109 143.396 181.762 143.199C180.415 143.002 179.213 143.607 179.077 144.55C178.941 145.493 179.922 146.418 181.269 146.615C182.615 146.812 183.817 146.207 183.954 145.264Z" fill="#E6E6E6"/>
<path d="M199.987 143.689C200.124 142.746 199.142 141.821 197.796 141.624C196.449 141.427 195.247 142.031 195.111 142.975C194.974 143.918 195.956 144.842 197.302 145.04C198.649 145.237 199.851 144.632 199.987 143.689Z" fill="#3F3D56"/>
<path d="M179.563 132.195C179.699 131.252 178.718 130.327 177.371 130.13C176.025 129.932 174.822 130.537 174.686 131.48C174.55 132.424 175.531 133.348 176.878 133.545C178.224 133.743 179.427 133.138 179.563 132.195Z" fill="#FF6584"/>
<path d="M172.596 126.841C172.603 125.975 172.123 125.27 171.525 125.265C170.926 125.261 170.436 125.959 170.43 126.825C170.423 127.691 170.903 128.397 171.501 128.401C172.099 128.406 172.59 127.707 172.596 126.841Z" fill="#E6E6E6"/>
<path d="M170.233 116.87C170.24 116.004 169.76 115.299 169.162 115.294C168.564 115.289 168.073 115.988 168.067 116.854C168.06 117.72 168.54 118.425 169.138 118.43C169.737 118.434 170.227 117.736 170.233 116.87Z" fill="#3F3D56"/>
<path d="M188.606 134.419C188.613 133.553 188.133 132.847 187.535 132.843C186.936 132.838 186.446 133.536 186.44 134.402C186.433 135.268 186.913 135.974 187.511 135.979C188.109 135.983 188.6 135.285 188.606 134.419Z" fill="#E6E6E6"/>
<path d="M180.858 138.314C180.865 137.448 180.385 136.742 179.787 136.738C179.188 136.733 178.698 137.432 178.692 138.297C178.685 139.163 179.165 139.869 179.763 139.874C180.361 139.878 180.852 139.18 180.858 138.314Z" fill="#FF6584"/>
<path d="M191.644 145.513C191.65 144.647 191.171 143.941 190.572 143.937C189.974 143.932 189.484 144.631 189.477 145.496C189.471 146.362 189.951 147.068 190.549 147.073C191.147 147.077 191.637 146.379 191.644 145.513Z" fill="#3F3D56"/>
<path d="M124.282 51.6963C124.418 50.7531 123.437 49.8285 122.09 49.6313C120.743 49.434 119.541 50.0387 119.405 50.9819C119.269 51.9251 120.25 52.8497 121.596 53.047C122.943 53.2443 124.145 52.6395 124.282 51.6963Z" fill="white"/>
<path d="M140.315 50.1211C140.452 49.1779 139.47 48.2533 138.124 48.056C136.777 47.8587 135.575 48.4634 135.439 49.4067C135.302 50.3499 136.284 51.2745 137.63 51.4717C138.977 51.669 140.179 51.0643 140.315 50.1211Z" fill="#3F3D56"/>
<path d="M119.891 38.627C120.027 37.6837 119.046 36.7592 117.7 36.5619C116.353 36.3646 115.151 36.9693 115.014 37.9126C114.878 38.8558 115.859 39.7804 117.206 39.9777C118.553 40.1749 119.755 39.5702 119.891 38.627Z" fill="#FF6584"/>
<path d="M112.924 33.2736C112.931 32.4077 112.451 31.702 111.853 31.6975C111.254 31.6929 110.764 32.3912 110.758 33.2571C110.751 34.123 111.231 34.8287 111.829 34.8333C112.427 34.8378 112.918 34.1395 112.924 33.2736Z" fill="#E6E6E6"/>
<path d="M110.561 23.3024C110.568 22.4364 110.088 21.7308 109.49 21.7262C108.892 21.7217 108.401 22.4199 108.395 23.2859C108.388 24.1518 108.868 24.8575 109.466 24.862C110.065 24.8666 110.555 24.1683 110.561 23.3024Z" fill="#3F3D56"/>
<path d="M128.934 40.8511C128.941 39.9851 128.461 39.2795 127.863 39.2749C127.265 39.2704 126.774 39.9686 126.768 40.8346C126.761 41.7005 127.241 42.4062 127.839 42.4107C128.438 42.4153 128.928 41.717 128.934 40.8511Z" fill="#E6E6E6"/>
<path d="M121.186 44.7461C121.193 43.8802 120.713 43.1745 120.115 43.17C119.516 43.1654 119.026 43.8637 119.02 44.7296C119.013 45.5955 119.493 46.3012 120.091 46.3057C120.689 46.3103 121.18 45.612 121.186 44.7461Z" fill="#FF6584"/>
<path d="M131.972 51.9452C131.978 51.0792 131.499 50.3736 130.9 50.369C130.302 50.3645 129.812 51.0627 129.805 51.9287C129.799 52.7946 130.279 53.5002 130.877 53.5048C131.475 53.5094 131.965 52.8111 131.972 51.9452Z" fill="#3F3D56"/>
</g>
<defs>
<clipPath id="clip0_11_382">
<rect width="200" height="230" fill="white"/>
</clipPath>
</defs>
</svg>
